# xmcd
#
# Track frame offsets:
#	183
#	28118
#	55990
#	74985
#
# Disc length: 1200 seconds
#
# Revision: 3
# Processed by: cddbd v1.5.2PL0 Copyright (c) Steve Scherf et al.
# Submitted via: EZCDAudioConverter 1.3.4.1
#
DISCID=3c04ae04
DTITLE=Yello - Blazing Saddles
DYEAR=1989
DGENRE=
TTITLE0=Blazing Saddles [Latinhouse Remix]
TTITLE1=I Love You [Emilio Pasquez Rubber Band Mix]
TTITLE2=The Rhythm Divine
TTITLE3=Blue Nabou
EXTD=
EXTT0=
EXTT1=
EXTT2=
EXTT3=
PLAYORDER=
